#Comment line ignore any data following # character 
#Hierarchical Translation and Rotation (.htr) file 
[Header]	
#Header keywords are followed by a single value 
FileType HTR		#Single word string
DataType HTRS		#Translation followed by rotation and scale data
FileVersion 1		#integer
NumSegments 84		#integer
NumFrames 2		#integer
DataFrameRate 30		#integer, data frame rate in this file
EulerRotationOrder ZYX
CalibrationUnits mm
RotationUnits Degrees
GlobalAxisofGravity Y
BoneLengthAxis Y
ScaleFactor 1.00
[SegmentNames&Hierarchy]
#CHILD	PARENT
MASTER GLOBAL
root MASTER
chest root
L_mid_tent01 root
R_mid_tent01 root
spine01 root
Bip01_Neck chest
L_humerus chest
R_humerus chest
weapon_bone chest
Bip01_Head Bip01_Neck
eye_left_bone Bip01_Head
eye_right_bone Bip01_Head
L_forearm L_humerus
L_front_hand L_forearm
L_weapon_bone L_forearm
L_front_hand01_01 L_front_hand
L_front_hand02_01 L_front_hand
L_front_hand03_01 L_front_hand
L_front_hand01_02 L_front_hand01_01
L_front_hand02_02 L_front_hand02_01
L_front_hand03_02 L_front_hand03_01
R_forearm R_humerus
R_front_hand R_forearm
R_weapon_bone R_forearm
R_front_hand01_01 R_front_hand
R_front_hand02_01 R_front_hand
R_front_hand03_01 R_front_hand
R_front_hand01_02 R_front_hand01_01
R_front_hand02_02 R_front_hand02_01
R_front_hand03_02 R_front_hand03_01
null_rope01_connect L_mid_tent01
Rope1_Seg01 null_rope01_connect
Rope1_Seg02 Rope1_Seg01
Rope1_Seg03 Rope1_Seg02
Rope1_Seg04 Rope1_Seg03
Rope1_Seg05 Rope1_Seg04
Rope1_Seg06 Rope1_Seg05
Rope1_Seg07 Rope1_Seg06
Rope1_Seg09 Rope1_Seg07
L_mid_hand01 Rope1_Seg09
L_mid_hand02 Rope1_Seg09
L_mid_hand03 Rope1_Seg09
null_rope02_connect R_mid_tent01
Rope2_Seg01 null_rope02_connect
Rope2_Seg02 Rope2_Seg01
Rope2_Seg03 Rope2_Seg02
Rope2_Seg04 Rope2_Seg03
Rope2_Seg05 Rope2_Seg04
Rope2_Seg06 Rope2_Seg05
Rope2_Seg07 Rope2_Seg06
Rope2_Seg09 Rope2_Seg07
R_mid_hand01 Rope2_Seg09
R_mid_hand02 Rope2_Seg09
R_mid_hand03 Rope2_Seg09
spine02 spine01
spine03 spine02
pelvis spine03
null_rope03_connect pelvis
null_rope04_connect pelvis
Rope3_Seg01 null_rope03_connect
Rope3_Seg02 Rope3_Seg01
Rope3_Seg03 Rope3_Seg02
Rope3_Seg04 Rope3_Seg03
Rope3_Seg05 Rope3_Seg04
Rope3_Seg06 Rope3_Seg05
Rope3_Seg07 Rope3_Seg06
Rope3_Seg08 Rope3_Seg07
Rope3_Seg09 Rope3_Seg08
R_rear_hand01 Rope3_Seg09
R_rear_hand02 Rope3_Seg09
R_rear_hand03 Rope3_Seg09
Rope4_Seg01 null_rope04_connect
Rope4_Seg02 Rope4_Seg01
Rope4_Seg03 Rope4_Seg02
Rope4_Seg04 Rope4_Seg03
Rope4_Seg05 Rope4_Seg04
Rope4_Seg06 Rope4_Seg05
Rope4_Seg07 Rope4_Seg06
Rope4_Seg08 Rope4_Seg07
Rope4_Seg09 Rope4_Seg08
L_rear_hand01 Rope4_Seg09
L_rear_hand02 Rope4_Seg09
L_rear_hand03 Rope4_Seg09
[BasePosition]
#SegmentName Tx, Ty, Tz, Rx, Ry, Rz, BoneLength
MASTER 0.000000 0.000000 0.000000 -90.000000 0.000000 0.000000 10.000000 
root 0.000000 0.000000 0.000000 0.000000 0.000000 0.000000 10.000000 
chest 0.000000 0.000000 0.000000 0.000000 0.000000 0.000000 10.000000 
L_mid_tent01 0.000000 0.000000 0.000000 0.000000 0.000000 0.000000 10.000000 
R_mid_tent01 0.000000 0.000000 0.000000 0.000000 0.000000 0.000000 10.000000 
spine01 0.000000 0.000000 0.000000 0.000000 0.000000 0.000000 10.000000 
Bip01_Neck 0.000000 0.000000 0.000000 0.000000 0.000000 0.000000 10.000000 
L_humerus 0.000000 0.000000 0.000000 0.000000 0.000000 0.000000 10.000000 
R_humerus 0.000000 0.000000 0.000000 0.000000 0.000000 0.000000 10.000000 
weapon_bone 0.000000 0.000000 0.000000 0.000000 0.000000 0.000000 10.000000 
Bip01_Head 0.000000 0.000000 0.000000 0.000000 0.000000 0.000000 10.000000 
eye_left_bone 0.000000 0.000000 0.000000 0.000000 0.000000 0.000000 10.000000 
eye_right_bone 0.000000 0.000000 0.000000 0.000000 0.000000 0.000000 10.000000 
L_forearm 0.000000 0.000000 0.000000 0.000000 0.000000 0.000000 10.000000 
L_front_hand 0.000000 0.000000 0.000000 0.000000 0.000000 0.000000 10.000000 
L_weapon_bone 0.000000 0.000000 0.000000 0.000000 0.000000 0.000000 10.000000 
L_front_hand01_01 0.000000 0.000000 0.000000 0.000000 0.000000 0.000000 10.000000 
L_front_hand02_01 0.000000 0.000000 0.000000 0.000000 0.000000 0.000000 10.000000 
L_front_hand03_01 0.000000 0.000000 0.000000 0.000000 0.000000 0.000000 10.000000 
L_front_hand01_02 0.000000 0.000000 0.000000 0.000000 0.000000 0.000000 10.000000 
L_front_hand02_02 0.000000 0.000000 0.000000 0.000000 0.000000 0.000000 10.000000 
L_front_hand03_02 0.000000 0.000000 0.000000 0.000000 0.000000 0.000000 10.000000 
R_forearm 0.000000 0.000000 0.000000 0.000000 0.000000 0.000000 10.000000 
R_front_hand 0.000000 0.000000 0.000000 0.000000 0.000000 0.000000 10.000000 
R_weapon_bone 0.000000 0.000000 0.000000 0.000000 0.000000 0.000000 10.000000 
R_front_hand01_01 0.000000 0.000000 0.000000 0.000000 0.000000 0.000000 10.000000 
R_front_hand02_01 0.000000 0.000000 0.000000 0.000000 0.000000 0.000000 10.000000 
R_front_hand03_01 0.000000 0.000000 0.000000 0.000000 0.000000 0.000000 10.000000 
R_front_hand01_02 0.000000 0.000000 0.000000 0.000000 0.000000 0.000000 10.000000 
R_front_hand02_02 0.000000 0.000000 0.000000 0.000000 0.000000 0.000000 10.000000 
R_front_hand03_02 0.000000 0.000000 0.000000 0.000000 0.000000 0.000000 10.000000 
null_rope01_connect 0.000000 0.000000 0.000000 0.000000 0.000000 0.000000 10.000000 
Rope1_Seg01 0.000000 0.000000 0.000000 0.000000 0.000000 0.000000 10.000000 
Rope1_Seg02 0.000000 0.000000 0.000000 0.000000 0.000000 0.000000 10.000000 
Rope1_Seg03 0.000000 0.000000 0.000000 0.000000 0.000000 0.000000 10.000000 
Rope1_Seg04 0.000000 0.000000 0.000000 0.000000 0.000000 0.000000 10.000000 
Rope1_Seg05 0.000000 0.000000 0.000000 0.000000 0.000000 0.000000 10.000000 
Rope1_Seg06 0.000000 0.000000 0.000000 0.000000 0.000000 0.000000 10.000000 
Rope1_Seg07 0.000000 0.000000 0.000000 0.000000 0.000000 0.000000 10.000000 
Rope1_Seg09 0.000000 0.000000 0.000000 0.000000 0.000000 0.000000 10.000000 
L_mid_hand01 0.000000 0.000000 0.000000 0.000000 0.000000 0.000000 10.000000 
L_mid_hand02 0.000000 0.000000 0.000000 0.000000 0.000000 0.000000 10.000000 
L_mid_hand03 0.000000 0.000000 0.000000 0.000000 0.000000 0.000000 10.000000 
null_rope02_connect 0.000000 0.000000 0.000000 0.000000 0.000000 0.000000 10.000000 
Rope2_Seg01 0.000000 0.000000 0.000000 0.000000 0.000000 0.000000 10.000000 
Rope2_Seg02 0.000000 0.000000 0.000000 0.000000 0.000000 0.000000 10.000000 
Rope2_Seg03 0.000000 0.000000 0.000000 0.000000 0.000000 0.000000 10.000000 
Rope2_Seg04 0.000000 0.000000 0.000000 0.000000 0.000000 0.000000 10.000000 
Rope2_Seg05 0.000000 0.000000 0.000000 0.000000 0.000000 0.000000 10.000000 
Rope2_Seg06 0.000000 0.000000 0.000000 0.000000 0.000000 0.000000 10.000000 
Rope2_Seg07 0.000000 0.000000 0.000000 0.000000 0.000000 0.000000 10.000000 
Rope2_Seg09 0.000000 0.000000 0.000000 0.000000 0.000000 0.000000 10.000000 
R_mid_hand01 0.000000 0.000000 0.000000 0.000000 0.000000 0.000000 10.000000 
R_mid_hand02 0.000000 0.000000 0.000000 0.000000 0.000000 0.000000 10.000000 
R_mid_hand03 0.000000 0.000000 0.000000 0.000000 0.000000 0.000000 10.000000 
spine02 0.000000 0.000000 0.000000 0.000000 0.000000 0.000000 10.000000 
spine03 0.000000 0.000000 0.000000 0.000000 0.000000 0.000000 10.000000 
pelvis 0.000000 0.000000 0.000000 0.000000 0.000000 0.000000 10.000000 
null_rope03_connect 0.000000 0.000000 0.000000 0.000000 0.000000 0.000000 10.000000 
null_rope04_connect 0.000000 0.000000 0.000000 0.000000 0.000000 0.000000 10.000000 
Rope3_Seg01 0.000000 0.000000 0.000000 0.000000 0.000000 0.000000 10.000000 
Rope3_Seg02 0.000000 0.000000 0.000000 0.000000 0.000000 0.000000 10.000000 
Rope3_Seg03 0.000000 0.000000 0.000000 0.000000 0.000000 0.000000 10.000000 
Rope3_Seg04 0.000000 0.000000 0.000000 0.000000 0.000000 0.000000 10.000000 
Rope3_Seg05 0.000000 0.000000 0.000000 0.000000 0.000000 0.000000 10.000000 
Rope3_Seg06 0.000000 0.000000 0.000000 0.000000 0.000000 0.000000 10.000000 
Rope3_Seg07 0.000000 0.000000 0.000000 0.000000 0.000000 0.000000 10.000000 
Rope3_Seg08 0.000000 0.000000 0.000000 0.000000 0.000000 0.000000 10.000000 
Rope3_Seg09 0.000000 0.000000 0.000000 0.000000 0.000000 0.000000 10.000000 
R_rear_hand01 0.000000 0.000000 0.000000 0.000000 0.000000 0.000000 10.000000 
R_rear_hand02 0.000000 0.000000 0.000000 0.000000 0.000000 0.000000 10.000000 
R_rear_hand03 0.000000 0.000000 0.000000 0.000000 0.000000 0.000000 10.000000 
Rope4_Seg01 0.000000 0.000000 0.000000 0.000000 0.000000 0.000000 10.000000 
Rope4_Seg02 0.000000 0.000000 0.000000 0.000000 0.000000 0.000000 10.000000 
Rope4_Seg03 0.000000 0.000000 0.000000 0.000000 0.000000 0.000000 10.000000 
Rope4_Seg04 0.000000 0.000000 0.000000 0.000000 0.000000 0.000000 10.000000 
Rope4_Seg05 0.000000 0.000000 0.000000 0.000000 0.000000 0.000000 10.000000 
Rope4_Seg06 0.000000 0.000000 0.000000 0.000000 0.000000 0.000000 10.000000 
Rope4_Seg07 0.000000 0.000000 0.000000 0.000000 0.000000 0.000000 10.000000 
Rope4_Seg08 0.000000 0.000000 0.000000 0.000000 0.000000 0.000000 10.000000 
Rope4_Seg09 0.000000 0.000000 0.000000 0.000000 0.000000 0.000000 10.000000 
L_rear_hand01 0.000000 0.000000 0.000000 0.000000 0.000000 0.000000 10.000000 
L_rear_hand02 0.000000 0.000000 0.000000 0.000000 0.000000 0.000000 10.000000 
L_rear_hand03 0.000000 0.000000 0.000000 0.000000 0.000000 0.000000 10.000000 
#Beginning of Data. Separated by tabs
#Fr	Tx	Ty	Tz	Rx	Ry	Rz	SF
[MASTER]
42 564.643250 7063.561035 60.040588 0.001660 0.001660 0.001660 7086.347656
43 451.714569 7250.848145 48.032494 0.001660 0.001660 0.001660 7265.063965
[root]
42 -16.502304 -32.559296 1184.334961 -68.243614 -22.278334 -87.033508 1184.897339
43 -16.502304 -20.396210 1257.200073 -71.815994 -21.832373 -87.632980 1257.473755
[chest]
42 -84.512650 -34.090519 0.000000 9.983931 -8.320157 -171.581223 91.129311
43 -84.512650 -34.090519 0.000000 9.174006 -6.729939 -174.441025 91.129311
[L_mid_tent01]
42 27.298637 22.179258 -249.918701 -15.411880 -1.163135 -12.418588 252.381638
43 27.298626 22.179258 -249.918701 -16.916435 1.169913 -7.397593 252.381638
[R_mid_tent01]
42 23.228794 24.509907 226.238495 -177.351883 -40.397671 53.402031 228.744751
43 23.228794 24.509907 226.238495 -172.165375 -39.894836 45.496944 228.744751
[spine01]
42 -0.361383 -0.195265 0.000000 0.001947 0.001311 22.118622 0.410763
43 -0.361383 -0.195265 0.000000 0.001947 0.001311 22.092159 0.410763
[Bip01_Neck]
42 165.484543 71.581718 0.000119 176.643677 -1.657967 43.431911 180.302734
43 165.484543 71.581718 0.000119 176.643677 -1.657967 43.431911 180.302734
[L_humerus]
42 -13.983130 -135.272980 -120.471481 58.790020 63.974236 145.448074 181.680161
43 -13.983130 -135.272980 -120.471481 49.214397 67.212448 136.594620 181.680161
[R_humerus]
42 -13.983309 -135.273102 125.287651 63.399040 -86.388275 31.853380 184.909012
43 -13.983309 -135.273102 125.287651 43.804020 -83.516563 51.536720 184.909012
[weapon_bone]
42 235.964890 -300.705902 0.000000 0.000000 -89.951546 -128.212341 382.234833
43 235.964890 -300.705902 0.000000 0.000000 -89.951546 -128.212341 382.234833
[Bip01_Head]
42 213.443695 185.715042 11.777149 10.897101 5.090064 -43.855988 283.173065
43 213.443802 185.715057 11.777107 8.923244 4.472106 -43.864487 283.173157
[eye_left_bone]
42 -24.626970 125.451866 -64.772606 0.000000 -90.000000 -99.840431 143.318359
43 -24.626970 125.451866 -64.772606 0.000000 -90.000000 -99.840431 143.318359
[eye_right_bone]
42 -24.626970 125.451866 64.327362 0.000000 -89.965736 80.156380 143.117676
43 -24.626970 125.451866 64.327362 0.000000 -89.965736 80.156380 143.117676
[L_forearm]
42 322.776093 0.000000 -0.000119 0.000399 -0.002313 -109.557243 322.776093
43 322.776093 0.000000 -0.000119 0.000398 -0.002313 -109.504768 322.776093
[L_front_hand]
42 241.149185 -0.042021 -3.300071 -178.667953 -1.835447 -27.422350 241.171753
43 241.149185 -0.042021 -3.300071 -178.667953 -1.835447 -27.422350 241.171753
[L_weapon_bone]
42 156.183838 0.000000 0.000000 0.000014 0.000007 0.000001 156.183838
43 156.183838 0.000000 0.000000 0.000014 0.000007 0.000001 156.183838
[L_front_hand01_01]
42 86.095154 20.947098 -0.655860 -0.366594 -0.477154 75.385574 88.609184
43 86.095154 20.947098 -0.655860 -0.366594 -0.477154 75.385574 88.609184
[L_front_hand02_01]
42 86.935165 -11.437475 24.513514 154.399796 -59.883835 -61.369587 91.046425
43 86.935165 -11.437475 24.513514 154.399796 -59.883835 -61.369587 91.046425
[L_front_hand03_01]
42 86.637497 -14.123976 -20.424902 -153.913849 58.118122 -62.702866 90.126129
43 86.637497 -14.123976 -20.424902 -153.913849 58.118122 -62.702866 90.126129
[L_front_hand01_02]
42 71.020905 -0.000179 0.000030 0.000334 -0.002323 -106.378319 71.020905
43 71.020905 -0.000179 0.000030 0.000334 -0.002323 -106.379005 71.020905
[L_front_hand02_02]
42 71.020927 -0.000119 0.000060 0.000334 -0.002323 -106.378319 71.020927
43 71.020927 -0.000119 0.000060 0.000334 -0.002323 -106.379005 71.020927
[L_front_hand03_02]
42 71.020905 -0.000060 0.000060 0.000334 -0.002323 -106.378319 71.020905
43 71.020905 -0.000060 0.000060 0.000334 -0.002323 -106.379005 71.020905
[R_forearm]
42 322.776428 -0.000060 0.000030 0.202024 0.065402 -108.201256 322.776428
43 322.776428 -0.000060 0.000030 0.202049 0.065323 -108.156471 322.776428
[R_front_hand]
42 238.847015 -0.006795 2.210259 -2.635298 -10.645461 -26.312506 238.857239
43 238.847015 -0.006795 2.210259 -2.635298 -10.645461 -26.312506 238.857239
[R_weapon_bone]
42 155.664093 0.002503 -0.000030 0.003487 0.001180 -90.988930 155.664078
43 155.664093 0.002503 -0.000030 0.003487 0.001180 -90.988930 155.664078
[R_front_hand01_01]
42 87.624611 14.231146 22.918642 -154.633499 -59.950619 61.746044 91.683487
43 87.624611 14.231146 22.918642 -154.633484 -59.950619 61.746037 91.683487
[R_front_hand02_01]
42 89.356956 14.367283 -19.491137 154.602661 58.302849 63.744389 92.579636
43 89.356956 14.367283 -19.491137 154.602661 58.302849 63.744389 92.579636
[R_front_hand03_01]
42 87.286232 -22.307278 -0.143439 0.162155 -0.423168 -75.767921 90.091743
43 87.286232 -22.307278 -0.143439 0.162155 -0.423168 -75.767921 90.091743
[R_front_hand01_02]
42 71.020905 0.000060 0.000119 0.002323 -0.000334 106.381714 71.020905
43 71.020905 0.000060 0.000119 0.002323 -0.000334 106.381714 71.020905
[R_front_hand02_02]
42 71.020844 -0.000030 -0.000119 0.002323 -0.000334 106.381714 71.020836
43 71.020844 -0.000030 -0.000119 0.002323 -0.000334 106.381714 71.020836
[R_front_hand03_02]
42 71.020905 0.000000 0.000030 0.002323 -0.000334 106.381714 71.020905
43 71.020905 0.000000 0.000030 0.002323 -0.000334 106.381714 71.020905
[null_rope01_connect]
42 328.732483 0.000000 -0.000238 26.409395 -82.405785 97.854568 328.732483
43 328.732483 0.000000 -0.000238 -2.025290 -87.361366 120.505905 328.732483
[Rope1_Seg01]
42 0.000000 0.000000 0.000000 65.361176 19.246567 -106.726410 0.000000
43 0.000000 0.000000 0.000000 56.136139 17.913921 -114.206146 0.000000
[Rope1_Seg02]
42 139.999863 -0.000179 0.000000 4.948751 1.204506 5.536095 139.999863
43 139.999863 -0.000179 0.000000 4.945419 1.029706 5.107182 139.999863
[Rope1_Seg03]
42 139.999924 0.000060 -0.000060 7.068415 1.395752 7.000002 139.999924
43 139.999924 0.000060 -0.000060 6.917439 1.300350 6.257224 139.999924
[Rope1_Seg04]
42 139.999924 -0.000060 -0.000119 2.471325 -6.499398 9.813182 139.999924
43 139.999924 -0.000060 -0.000119 1.363667 -4.933586 6.942518 139.999924
[Rope1_Seg05]
42 139.999832 0.000119 -0.000060 28.813955 23.531895 6.919004 139.999832
43 139.999832 0.000119 -0.000060 32.434494 19.785563 11.069374 139.999832
[Rope1_Seg06]
42 139.999954 0.000119 -0.000060 1.452518 34.366547 -18.674078 139.999954
43 139.999954 0.000119 -0.000060 9.255490 29.276386 -7.977904 139.999954
[Rope1_Seg07]
42 139.999985 0.000060 0.000000 -0.198568 10.733223 -5.726975 139.999985
43 139.999985 0.000060 0.000000 1.337860 10.221334 -3.946498 139.999985
[Rope1_Seg09]
42 121.602913 0.000119 -0.000089 -89.793175 -1.359789 0.847147 121.602913
43 121.602913 0.000119 -0.000089 -89.793175 -1.359789 0.847147 121.602913
[L_mid_hand01]
42 103.859421 1.038730 8.195221 130.544373 -67.584534 -38.866943 104.187431
43 103.859421 1.038730 8.195221 130.544373 -67.584534 -38.866943 104.187431
[L_mid_hand02]
42 105.572853 -4.139662 -10.864139 -168.923172 43.409309 -73.498886 106.211075
43 105.572853 -4.139662 -10.864139 -168.923172 43.409309 -73.498886 106.211075
[L_mid_hand03]
42 104.641464 17.579376 -3.913581 -6.012627 17.808174 74.893669 106.179977
43 104.641464 17.579376 -3.913581 -6.012627 17.808174 74.893669 106.179977
[null_rope02_connect]
42 328.732849 0.000179 -0.000119 -132.763962 28.080755 -14.105104 328.732849
43 328.732849 0.000179 -0.000119 -132.486496 31.701370 -18.907806 328.732849
[Rope2_Seg01]
42 0.000072 0.000017 0.000000 -49.127113 -12.048349 -73.859886 0.000074
43 0.000073 0.000013 0.000000 -47.952984 -10.918285 -75.921028 0.000074
[Rope2_Seg02]
42 139.999741 -0.000060 -0.000119 -1.685317 -0.648241 -0.804944 139.999756
43 139.999741 -0.000060 -0.000119 -1.255978 -1.144846 -0.361709 139.999756
[Rope2_Seg03]
42 140.000107 0.000030 0.000000 -2.935644 -0.809912 -1.550909 140.000107
43 140.000107 0.000030 0.000000 -2.635018 -1.943073 -0.878881 140.000107
[Rope2_Seg04]
42 139.999802 0.000000 -0.000060 -4.234688 -0.917376 -2.364973 139.999802
43 139.999802 0.000000 -0.000060 -1.546713 -1.147300 -0.472560 139.999802
[Rope2_Seg05]
42 139.999985 -0.000060 0.000119 7.684572 0.243549 4.668810 139.999985
43 139.999985 -0.000060 0.000119 5.805546 3.300390 2.453061 139.999985
[Rope2_Seg06]
42 139.999893 -0.000030 -0.000119 8.295300 1.011872 4.544139 139.999893
43 139.999893 -0.000030 -0.000119 3.189208 2.245879 1.326124 139.999893
[Rope2_Seg07]
42 139.999893 0.000060 -0.000060 3.768689 0.694078 1.969342 139.999893
43 139.999893 0.000060 -0.000060 1.402219 1.107286 0.593940 139.999893
[Rope2_Seg09]
42 121.338966 0.000089 -0.000060 33.793236 -1.359788 -0.847141 121.338966
43 121.338966 0.000089 -0.000060 33.793236 -1.359788 -0.847141 121.338966
[R_mid_hand01]
42 104.680779 11.144459 -10.335981 -16.212059 45.237240 70.462852 105.778534
43 104.680779 11.144459 -10.335981 -16.212063 45.237247 70.462852 105.778534
[R_mid_hand02]
42 104.070427 2.443552 8.231699 49.067368 -67.749771 39.286453 104.424065
43 104.070427 2.443552 8.231699 49.067368 -67.749771 39.286453 104.424065
[R_mid_hand03]
42 106.028137 -11.221827 -5.996406 -177.101105 15.551026 -76.585571 106.788818
43 106.028137 -11.221827 -5.996406 -177.101105 15.551026 -76.585571 106.788818
[spine02]
42 129.756927 0.001550 0.000119 0.371498 -4.043649 -13.099744 129.756927
43 129.756927 0.001550 0.000119 0.367012 -4.044116 -13.042309 129.756927
[spine03]
42 78.613991 0.081736 -4.898992 1.903946 3.828742 16.598280 78.766525
43 78.613983 0.081736 -4.898991 1.900973 3.829643 16.558184 78.766518
[pelvis]
42 169.435242 0.051022 0.000000 -19.091196 2.827853 7.086550 169.435257
43 169.435242 0.051022 0.000000 -14.905438 2.358162 8.592237 169.435257
[null_rope03_connect]
42 -1.257226 -2.466202 137.391083 80.995178 -77.916176 -0.446741 137.418976
43 -1.257226 -2.466202 137.391083 74.001030 -79.518867 4.264525 137.418976
[null_rope04_connect]
42 -1.259640 -2.480268 -137.844437 80.995178 -77.916176 -0.446741 137.872513
43 -1.259640 -2.480268 -137.844437 74.001030 -79.518867 4.264525 137.872513
[Rope3_Seg01]
42 0.000000 0.000000 0.000000 17.348877 7.810287 -76.045921 0.000000
43 0.000000 0.000000 0.000000 16.959105 11.025655 -79.521431 0.000000
[Rope3_Seg02]
42 139.999924 -0.000119 0.000060 -0.069542 0.275795 3.305681 139.999924
43 139.999924 -0.000119 0.000060 -0.030517 -0.081525 3.493876 139.999924
[Rope3_Seg03]
42 139.999924 -0.000119 0.000119 -0.153056 -0.301839 2.395953 139.999924
43 139.999924 -0.000119 0.000119 -0.179195 -0.601683 3.346400 139.999924
[Rope3_Seg04]
42 139.999924 0.000119 0.000000 -0.118080 -2.087007 -1.302108 139.999924
43 139.999924 0.000119 0.000000 -0.374585 -2.655317 1.291633 139.999924
[Rope3_Seg05]
42 139.999924 -0.000238 0.000060 -0.631446 8.049268 25.173426 139.999924
43 139.999924 -0.000238 0.000060 0.278698 6.477711 14.875381 139.999924
[Rope3_Seg06]
42 139.999893 -0.000119 -0.000060 -5.424791 6.488570 21.698885 139.999893
43 139.999893 -0.000119 -0.000060 0.274435 7.704064 15.102956 139.999893
[Rope3_Seg07]
42 139.999771 0.000060 -0.000119 -5.903897 1.526412 9.030627 139.999771
43 139.999771 0.000060 -0.000119 -0.672752 3.507921 7.765457 139.999771
[Rope3_Seg08]
42 139.999985 -0.000060 0.000000 -4.650039 0.299964 4.782255 139.999985
43 139.999985 -0.000060 0.000000 -0.553973 1.968897 4.539149 139.999985
[Rope3_Seg09]
42 90.185997 -0.000179 -0.000060 89.793228 -1.359877 -0.847183 90.185997
43 90.185997 -0.000179 -0.000060 89.793228 -1.359877 -0.847183 90.185997
[R_rear_hand01]
42 103.366196 -6.073594 -10.757982 -177.714203 24.565960 -73.910950 104.101845
43 103.366196 -6.073594 -10.757982 -177.714203 24.565960 -73.910950 104.101845
[R_rear_hand02]
42 100.509819 12.039542 -7.992327 -12.874829 36.868488 72.167213 101.543350
43 100.509819 12.039542 -7.992327 -12.874829 36.868488 72.167213 101.543350
[R_rear_hand03]
42 101.539970 5.215704 5.435467 71.484581 -71.816628 21.513813 101.819031
43 101.539970 5.215704 5.435467 71.484581 -71.816628 21.513813 101.819031
[Rope4_Seg01]
42 0.000010 0.000004 -0.000017 -98.385414 3.485348 -97.933990 0.000020
43 0.000010 0.000003 -0.000013 -98.884430 9.999518 -102.308807 0.000017
[Rope4_Seg02]
42 139.999985 0.000060 0.000119 1.122564 -14.462996 0.871321 139.999985
43 139.999985 0.000060 0.000119 0.164239 -10.563297 0.498064 139.999985
[Rope4_Seg03]
42 139.999924 0.000000 -0.000238 3.430019 -16.609240 0.725973 139.999924
43 139.999924 0.000000 -0.000238 1.254933 -12.647723 0.141266 139.999924
[Rope4_Seg04]
42 139.999985 0.000000 0.000119 4.087626 -10.629723 1.261455 139.999985
43 139.999985 0.000000 0.000119 2.855093 -13.945689 0.056130 139.999985
[Rope4_Seg05]
42 139.999802 -0.000060 -0.000119 -2.746497 10.465419 0.038204 139.999802
43 139.999802 -0.000060 -0.000119 -0.539457 7.394954 1.751042 139.999802
[Rope4_Seg06]
42 139.999924 0.000000 0.000060 -2.262915 14.708384 0.228286 139.999924
43 139.999924 0.000000 0.000060 -0.820064 14.543372 2.001192 139.999924
[Rope4_Seg07]
42 139.999802 0.000000 0.000000 -0.327825 6.480753 0.567630 139.999802
43 139.999802 0.000000 0.000000 0.056656 5.849734 1.173279 139.999802
[Rope4_Seg08]
42 139.999924 0.000000 0.000119 -1.627205 4.153078 0.393052 139.999924
43 139.999924 0.000000 0.000119 -1.445932 3.508233 0.719432 139.999924
[Rope4_Seg09]
42 90.185791 0.000060 0.000060 -135.617828 2.228885 0.850567 90.185791
43 90.185791 0.000060 0.000060 -135.617828 2.228885 0.850567 90.185791
[L_rear_hand01]
42 101.696655 -8.392275 -7.654577 -12.874829 -36.868488 107.832764 102.329041
43 101.696655 -8.392275 -7.654577 -12.874829 -36.868488 107.832764 102.329041
[L_rear_hand02]
42 102.726799 -1.568258 5.773216 71.484581 71.816628 158.486160 102.900848
43 102.726799 -1.568258 5.773216 71.484581 71.816628 158.486160 102.900848
[L_rear_hand03]
42 104.552910 9.721220 -10.420293 -177.714203 -24.565960 -106.089035 105.519653
43 104.552910 9.721220 -10.420293 -177.714203 -24.565960 -106.089035 105.519653
